#!OML:ASF F:\VICON\USERDATA\INSTALL\rory3\rory3.ASF
:FULLY-SPECIFIED
:DEGREES
102
root 0.3496342248539547 17.823147679303496 39.40025486436032 -4.838013239039777 -3.403393694737318 -1.534700552811557
lfemur -12.572642909291453 -2.5654167294219894 -22.379292590746285
ltibia 28.975849237392573
lfoot -11.976574152129457 2.144343925351846
ltoes 0.9591202349099821
rfemur -15.637692899677342 -2.876623782254036 22.743673206732595
rtibia 73.8282699494151
rfoot 2.054604107275445 -5.21066504059675
rtoes 13.472544834313496
lowerback 10.475324948187485 1.3968085322551473 0.5092666304830057
upperback 0.6917214682697836 2.0228376582542045 0.7603674746988114
thorax -5.175604662085979 1.0256913374176293 0.2606076277995617
lowerneck -15.553600971270086 -2.881073434287502 -2.5833912875893255
upperneck 19.68907364064063 -3.8506668691915036 1.9201412135196696
head 8.782844703777906 -1.7863672416829466 0.5362750506312184
lclavicle -1.38742804574138e-15 -1.8436985999422824e-15
lhumerus -34.12250272840974 6.240990373531313 79.75397204415754
lradius 21.551525602960663
lwrist 2.5805695867157565
lhand -26.40887383594683 24.180571208556287
lfingers 7.125019999999999
lthumb 0.08482274330696749 54.1274084215516
rclavicle -1.3874280458909956e-15 -1.843698600080729e-15
rhumerus -30.27334947057094 -23.612087140036284 -77.53402456513179
rradius 23.20313444566781
rwrist 1.9877425562485938
rhand -18.210457150015305 22.836528081369536
rfingers 7.125019999999999
rthumb 7.924212994817763 -7.1173891066666455
103
root 0.35134511935889473 17.842066657691337 39.915858308248644 -4.764089056460396 -2.8554479286205954 -1.333956167754406
lfemur -9.772387591090581 -2.99523524402557 -23.007002994648726
ltibia 28.17049168924966
lfoot -13.081841290283416 2.539574339697885
ltoes 0.8020507407896909
rfemur -19.50564764464032 -3.402862486979779 22.662996965830075
rtibia 73.1445743159908
rfoot -1.6444786865668206 -5.7999521746954015
rtoes 11.23916933807066
lowerback 10.73301161512836 1.001851476982452 -0.030657012603185207
upperback 0.8080804570816147 1.4488274403922214 0.845123884088578
thorax -5.277088408420819 0.7371174486114876 0.7653679411483465
lowerneck -15.670596506939155 -2.8447149807020042 -2.7860707038380794
upperneck 19.77417410207981 -3.7267753843324125 1.9476805800436083
head 8.851417395076513 -1.7463837593550433 0.5714145285219783
lclavicle -1.3874280457428286e-15 -1.843698599942407e-15
lhumerus -32.812065598443844 5.196878542269701 80.16001065930044
lradius 22.547445389540076
lwrist 2.7222364779308323
lhand -26.936120653932225 23.393445176084985
lfingers 7.125019999999999
lthumb -0.41344488206412655 53.341444143082946
rclavicle -1.387428045882194e-15 -1.843698600071375e-15
rhumerus -30.752725653616427 -23.54628997956033 -77.22349967232589
rradius 23.592986295170558
rwrist 1.4398717093453515
rhand -18.308486999134054 22.635695041606876
rfingers 7.125019999999999
rthumb 7.732539958545489 -7.433124260951386
104
root 0.3724942470711479 17.8615419876058 40.51652932240673 -4.531298172328546 -2.0588544074316055 -0.8475971380769176
lfemur -7.23545209779312 -3.4954306756691724 -23.914213483201262
ltibia 27.702499723353867
lfoot -13.969585504603444 3.1601033787818276
ltoes 1.0335680968329046
rfemur -23.30416032628993 -3.2240110115324994 22.367854149004646
rtibia 69.89019621322743
rfoot -4.391655202977921 -5.68681547508405
rtoes 8.888861933824808
lowerback 10.83634341479365 0.6234101322374469 -0.5071385473529402
upperback 0.9521545239220673 0.880657366182334 0.9053225511229571
thorax -5.149132501327912 0.5102955459135773 1.2150483573788111
lowerneck -15.860690096785405 -2.8396178302548 -2.9782947473898345
upperneck 19.680284402771836 -3.664458740898726 1.9652143297624192
head 8.869965475526769 -1.7256959471460753 0.5953316517922762
lclavicle -1.3874280457429172e-15 -1.8436985999413823e-15
lhumerus -31.387222086100333 4.122371222305125 80.44739826958461
lradius 23.32131311911196
lwrist 3.135720906159841
lhand -25.792214518166773 25.405240406948426
lfingers 7.125019999999999
lthumb 0.7547739141339427 55.407821241111414
rclavicle -1.3874280458851577e-15 -1.8436986000730945e-15
rhumerus -31.19701335627854 -23.60866472656498 -76.98783883945377
rradius 24.031016478768116
rwrist 0.2686785681340096
rhand -18.348973992225577 22.470883947364456
rfingers 7.125019999999999
rthumb 7.615954770383475 -7.68858006947776
105
root 0.37025580429129906 17.823109669766612 41.10997296976776 -4.210400335554913 -1.5693493654792892 -0.5676088614529213
lfemur -5.0043431247943895 -3.8695236277040657 -24.514640627389625
ltibia 27.2021344394861
lfoot -15.518466981572992 3.1354722060873046
ltoes 1.941727982432878
rfemur -25.497917790246415 -2.529727752071416 22.272344386360874
rtibia 64.2481360375136
rfoot -6.710537987806989 -5.983700393916183
rtoes 6.510070590757939
lowerback 10.986164639846326 0.3301572909316167 -1.1153288263064685
upperback 1.036732058310614 0.4287351253649651 0.9832959021611302
thorax -5.142585150330859 0.26880934583431476 1.7345862015371853
lowerneck -16.02196210014276 -2.836229862804789 -3.1082798389752835
upperneck 19.561913947387566 -3.6134196890908314 2.0080480263719416
head 8.873555655869371 -1.7085777178277934 0.6285703127747138
lclavicle -1.387428045747104e-15 -1.843698599944498e-15
lhumerus -30.06674761445112 3.022435833289372 80.61699855386314
lradius 24.30502127275517
lwrist 4.003481842937511
lhand -25.794165907639535 25.836461794522844
lfingers 7.125019999999999
lthumb 0.7185207405077596 55.7487035274554
rclavicle -1.3874280458815774e-15 -1.84369860006903e-15
rhumerus -31.893806183535663 -23.65927655871497 -76.78568167711836
rradius 24.33547552849904
rwrist -0.3123912094387329
rhand -18.407633360381375 22.38569400971404
rfingers 7.125019999999999
rthumb 7.481975972057831 -7.879323270626662
106
root 0.3651900031048042 17.78363182194983 41.933898613473964 -3.7018627681241245 -0.9429210708251825 0.0802963302639661
lfemur -2.5728106014806142 -4.075111817281446 -25.430331796025733
ltibia 25.827166368469875
lfoot -16.988449961406623 3.227748401523164
ltoes 2.432136299077555
rfemur -27.14878444157639 -1.4776381452622767 21.677534279942158
rtibia 55.99343112693806
rfoot -7.55139596656009 -7.040446929446074
rtoes 4.438197608297699
lowerback 11.023649119216703 0.05014651195517314 -1.827194871535481
upperback 1.1087168485096868 -0.04117231249147335 0.9579294736698624
thorax -5.083459876510045 0.05898763466061513 2.281267703071646
lowerneck -16.157063890178062 -2.822405797656716 -3.19097813096457
upperneck 19.227214185038974 -3.561474375728491 1.979499458796063
head 8.794079543344182 -1.6900547794008334 0.6146009993574557
lclavicle -1.3874280457451126e-15 -1.8436985999424335e-15
lhumerus -28.664630247421567 1.8821787988746876 80.71913275919512
lradius 25.319993536024864
lwrist 4.580275440353782
lhand -24.639731554620525 28.05278009208142
lfingers 7.125019999999999
lthumb 1.7699597906126097 57.90445649470772
rclavicle -1.3874280458796607e-15 -1.8436986000670984e-15
rhumerus -32.54918186890311 -23.634209774521185 -76.6162831508244
rradius 24.578930770322234
rwrist -0.4842287898574815
rhand -18.51798685359841 22.1851568654142
rfingers 7.125019999999999
rthumb 7.335924140557325 -8.129135819377256
107
root 0.3475026573739241 17.774530084742 42.284593311803825 -3.172050859401276 -0.5898739913856069 0.4965761306885179
lfemur 0.252963543979174 -3.9034968038176983 -25.941066898833512
ltibia 23.178632526720353
lfoot -17.300637351482155 2.962924190520055
ltoes 2.643614874500677
rfemur -28.001853159243613 0.06271463719328185 20.765119724409974
rtibia 45.28756714352101
rfoot -7.523907504042871 -8.490032837370737
rtoes 3.713783962458576
lowerback 11.024886504692962 -0.16577013060116375 -2.2743339089302737
upperback 1.1179118772693433 -0.3430271848780069 1.004435570717761
thorax -5.015375876002476 -0.08233071204742898 2.577498780375273
lowerneck -16.253602225536824 -2.7891247780220416 -3.2368060425578697
upperneck 19.164210021911874 -3.4896710627395446 2.0156117733899346
head 8.796467448459783 -1.6667833075215865 0.6457446910206053
lclavicle -1.3874280457422705e-15 -1.8436985999397545e-15
lhumerus -27.415933159617122 0.7485742021017661 80.75040654108388
lradius 26.452182644098944
lwrist 5.120135408909245
lhand -27.32303036644546 24.897484535944262
lfingers 7.125019999999999
lthumb -0.7350650459323355 54.9377673549017
rclavicle -1.3874280458751277e-15 -1.8436986000627884e-15
rhumerus -32.7059292743439 -23.482140816645703 -76.36260845980033
rradius 24.52770539135344
rwrist -0.3991683440300928
rhand -18.51594163613693 22.243132342583127
rfingers 7.125019999999999
rthumb 7.369730530151701 -8.020550426627096
108
root 0.31073510576169083 17.758655687965568 42.237822155034024 -2.5903771831836773 -0.25189866854935894 0.8107111832019367
lfemur 3.422046063328498 -3.5402085583005958 -26.258847078413467
ltibia 19.8294970923693
lfoot -16.761671099619324 2.040511780594805
ltoes 2.0573843916077057
rfemur -27.792106749854618 2.4686780799651986 19.610937732961855
rtibia 33.03415662801947
rfoot -8.0880803989839 -10.4731968836449
rtoes 3.303035856783125
lowerback 10.88776532257831 -0.4105097718271226 -2.6847910348484723
upperback 1.123443849131169 -0.7060559049637205 1.0401010428844093
thorax -4.8775039890730145 -0.2648465887054147 2.9106252343954733
lowerneck -16.338022143766207 -2.730261992105053 -3.223582494497711
upperneck 19.081527827261755 -3.3667303940794175 1.8911876838129666
head 8.774600407564341 -1.6263651662489071 0.6062200395343325
lclavicle -1.3874280457423567e-15 -1.8436985999405055e-15
lhumerus -26.26484910557415 -0.27343450721536433 80.81576300517493
lradius 27.53201439868819
lwrist 5.5303398506943475
lhand -27.736583417209683 24.199517458062232
lfingers 7.125019999999999
lthumb -1.0877752040531972 54.23754594604613
rclavicle -1.3874280458720152e-15 -1.8436986000604104e-15
rhumerus -32.683714142480575 -23.3446253074645 -75.97132274761293
rradius 24.22517270251834
rwrist 0.25079192403925
rhand -18.47260977297082 22.34308858642852
rfingers 7.125019999999999
rthumb 7.4349072997803525 -7.897441184330186
